HIERARCHY
ROOT Hips
{
  OFFSET -210.995 92.7652 197.211
  CHANNELS 6 Xposition Yposition Zposition Zrotation Xrotation Yrotation
  JOINT ToSpine
  {
    OFFSET -0.0105055 1.38907 -7.13956
    CHANNELS 3 Zrotation Xrotation Yrotation
    JOINT Spine
    {
      OFFSET 0.0105055 10 1
      CHANNELS 3 Zrotation Xrotation Yrotation
      JOINT Spine1
      {
        OFFSET 0 12 1.60637
        CHANNELS 3 Zrotation Xrotation Yrotation
        JOINT Neck
        {
          OFFSET 0 27 2.26658
          CHANNELS 3 Zrotation Xrotation Yrotation
          JOINT Head
          {
            OFFSET 0 9 2.12705
            CHANNELS 3 Zrotation Xrotation Yrotation
            End Site
            {
              OFFSET 0 11 2
            }
          }
        }
        JOINT LeftShoulder
        {
          OFFSET 8 19.6109 2.86452
          CHANNELS 3 Zrotation Xrotation Yrotation
          JOINT LeftArm
          {
            OFFSET 12 1 0.681055
            CHANNELS 3 Zrotation Xrotation Yrotation
            JOINT LeftForeArm
            {
              OFFSET 19 0 -1.52608
              CHANNELS 3 Zrotation Xrotation Yrotation
              JOINT LeftHand
              {
                OFFSET 23 0 0
                CHANNELS 3 Zrotation Xrotation Yrotation
                End Site
                {
                  OFFSET 10 0 0
                }
              }
            }
          }
        }
        JOINT RightShoulder
        {
          OFFSET -8 19.6109 2.86452
          CHANNELS 3 Zrotation Xrotation Yrotation
          JOINT RightArm
          {
            OFFSET -12 1 0.681055
            CHANNELS 3 Zrotation Xrotation Yrotation
            JOINT RightForeArm
            {
              OFFSET -19 0 -1.52608
              CHANNELS 3 Zrotation Xrotation Yrotation
              JOINT RightHand
              {
                OFFSET -23 0 0
                CHANNELS 3 Zrotation Xrotation Yrotation
                End Site
                {
                  OFFSET -10 0 0
                }
              }
            }
          }
        }
      }
    }
  }
  JOINT LeftUpLeg
  {
    OFFSET 9 -7.17245 0
    CHANNELS 3 Zrotation Xrotation Yrotation
    JOINT LeftLeg
    {
      OFFSET 0 -44.1113 0
      CHANNELS 3 Zrotation Xrotation Yrotation
      JOINT LeftFoot
      {
        OFFSET 0 -36.1829 0
        CHANNELS 3 Zrotation Xrotation Yrotation
        JOINT LeftToeBase
        {
          OFFSET 0 -4.84184 13
          CHANNELS 3 Zrotation Xrotation Yrotation
          End Site
          {
            OFFSET 0 1 6
          }
        }
      }
    }
  }
  JOINT RightUpLeg
  {
    OFFSET -9 -7.17245 0
    CHANNELS 3 Zrotation Xrotation Yrotation
    JOINT RightLeg
    {
      OFFSET 0 -44.0551 0
      CHANNELS 3 Zrotation Xrotation Yrotation
      JOINT RightFoot
      {
        OFFSET 0 -36.1469 0
        CHANNELS 3 Zrotation Xrotation Yrotation
        JOINT RightToeBase
        {
          OFFSET 0 -4.92256 13
          CHANNELS 3 Zrotation Xrotation Yrotation
          End Site
          {
            OFFSET 0 1 6
          }
        }
      }
    }
  }
}
MOTION
Frames:	14
Frame Time:	0.0333333
-210.995 92.7652 197.211 2.09269 10.1103 111.527 0 0 0 21.4076 -2.34252 10.8131 -31.6015 16.94 19.7978 4.42908 4.74847 1.68735 -0.527945 2.23062 3.28088 -29.3224 3.25328 -5.6712 -41.6908 4.34943 -10.5287 -33.6726 -17.0641 -66.2287 -9.90232 -0.250443 2.89035 22.8059 5.73447 16.0189 45.473 4.50283 6.31675 20.77 -12.2587 60.7584 9.73499 -0.0260978 -0.30646 -6.71085 -13.7438 4.07985 -3.99678 9.34918 16.0393 3.74341 2.09348 -0.0684205 0.591837 -1.44315 -2.19401 -17.0225 25.6442 -16.4959 0.965609 6.06749 32.3558 -15.1939 -13.1954 -1.76761 5.01837 -19.6194 -5.78426 
-209.035 92.9782 195.009 1.70645 10.4262 113.05 0 0 0 20.4826 -2.7264 10.1591 -30.9778 16.3859 18.9034 4.87636 4.0866 1.38178 -0.79256 2.79429 3.1637 -28.9644 3.28803 -5.86134 -42.5205 3.87792 -10.963 -33.8363 -17.7093 -65.5929 -12.9861 -0.515836 4.52999 22.7145 5.60244 15.6329 46.3322 4.53134 6.00298 21.957 -12.7979 61.2135 9.14864 -0.0878055 -1.09744 -7.55927 -14.0216 4.23023 -5.73798 13.1606 13.7356 7.31447 1.4983 -0.0957734 0.898169 -1.18908 -3.5848 -17.2917 26.0657 -15.9636 -0.801199 7.89879 30.4734 -10.2476 -11.6545 -1.0486 5.44615 -20.6411 -2.7689 
-207.052 93.1445 192.963 1.35017 10.8618 114.825 0 0 0 18.5662 -2.51135 9.52932 -29.2482 14.9437 17.442 4.26839 4.6519 1.47509 0.248293 2.9608 2.8207 -29.3285 3.34935 -5.93951 -42.4146 4.34231 -10.4831 -33.0305 -17.7494 -64.8787 -12.8391 -0.52295 4.64536 22.0552 5.4602 15.5566 48.0981 5.37915 4.71264 27.6214 -15.5024 62.9425 5.87328 -0.0194918 -0.379963 -8.77529 -13.7466 3.93983 -6.40651 16.2321 12.2782 7.29139 -1.02828 0.065519 0.801577 1.94458 -3.63713 -17.4151 25.4551 -14.7149 -2.06465 11.8491 27.9702 -12.7871 -5.85121 -0.656216 7.8457 -29.1922 -1.83649 
-205.033 93.2226 190.828 1.12931 11.1445 116.786 0 0 0 16.8859 -2.27333 8.85009 -27.6256 13.3676 15.9915 4.46919 5.21966 1.13415 0.496946 3.35334 2.50939 -29.318 3.39452 -6.0691 -42.7015 5.06634 -9.96532 -33.9222 -18.0688 -65.2419 -12.904 -0.600665 5.3078 21.9505 5.50281 15.7685 49.2034 4.37561 3.00196 27.6731 -15.4451 63.0769 6.09937 -0.0117523 -0.220586 -9.7768 -13.1738 3.94877 -7.02591 19.4376 10.5695 8.14573 -4.06866 0.28983 0.677578 3.31712 -3.34782 -17.3801 23.3872 -9.70532 -2.44085 19.4482 21.3921 -14.385 -2.05094 -0.25885 9.32064 -33.3686 -0.386556 
-203.107 93.3848 188.834 1.21335 11.2938 118.462 0 0 0 15.1166 -1.54069 8.15629 -25.913 11.8165 14.6539 5.81515 5.30722 0.166421 -0.244978 4.34255 2.19804 -28.9145 3.38971 -6.16318 -43.1046 5.37891 -9.81042 -32.8827 -17.4497 -65.1166 -12.7674 -0.585408 5.22886 22.0998 5.45579 15.5139 49.7327 3.70329 1.54523 28.2948 -15.528 63.559 6.23457 0.00506505 0.0930038 -10.5356 -11.7929 5.77604 -6.50495 21.574 6.86115 8.92193 -6.49824 0.50751 0.451317 3.0223 -2.44786 -17.1096 20.2448 -1.86326 -1.46717e-007 29.2005 12.1698 -14.9336 2.11432 0.277141 9.66137 -33.4756 1.16313 
-201.262 93.7914 187.045 1.66081 11.0007 119.848 0 0 0 13.7739 -0.156421 7.21191 -24.21 9.90719 13.1973 6.66298 4.52702 0.165007 -0.224843 4.09939 2.43528 -28.2628 3.36851 -6.28027 -44.2829 5.62014 -9.95546 -31.8543 -17.103 -64.671 -14.3051 -0.65781 5.23843 22.4025 5.43212 15.2477 49.8858 3.05907 0.875796 27.6758 -15.1982 63.4417 6.63476 0.0193978 0.334652 -10.5674 -9.37415 7.13764 -5.97531 21.4442 3.87326 9.77297 -8.03113 0.68772 0.371393 2.84206 -2.11262 -16.096 15.9129 -0.778272 -4.09046e-007 39.9397 12.0344 -14.5491 4.27602 0.546092 6.56851 -25.1267 -3.20326 
-199.671 93.9932 185.447 1.28938 10.9493 121.038 0 0 0 11.5557 0.491424 6.47225 -22.4911 8.69581 11.88 7.70532 4.08279 -0.0710627 -0.689866 3.7771 2.63996 -27.4367 3.32731 -6.39157 -44.5008 6.2525 -10.4686 -30.9645 -17.1233 -63.8627 -13.907 -0.581364 4.76411 22.9616 5.55346 15.3194 49.304 2.41782 0.692824 27.2823 -14.7586 63.7135 6.59902 -0.00952655 -0.165245 -11.2607 -8.10783 6.67436 -5.84234 21.5904 3.66428 9.1315 -9.62406 0.770344 0.640291 3.53507 -3.23825 -15.9018 10.4989 -1.55956 -6.20726e-007 49.0469 13.7687 -19.5024 10.5542 1.81876 4.97068 -19.8713 -7.63255 
-198.134 94.0855 184.066 1.29698 10.6425 121.909 0 0 0 9.25357 1.47374 5.3332 -19.7154 7.36328 9.81103 6.19036 4.50011 0.873731 0.87542 2.77015 2.70826 -29.2804 3.38681 -6.0574 -42.7168 6.54307 -9.75329 -32.8203 -17.1867 -65.3852 -12.7688 -0.479953 4.28745 22.0668 5.59623 16.0158 49.504 2.76277 1.29459 28.0736 -15.5744 63.2796 6.27742 -0.0113055 -0.206171 -11.2978 -6.83201 5.99559 -5.75444 21.973 3.08753 9.07159 -11.3804 0.905775 0.605232 4.06825 -3.18269 -14.8782 5.3086 0.0556121 8.75906e-007 56.3856 14.0812 -17.7566 5.82433 0.910569 4.81224 -19.0828 -7.50386 
-196.673 94.1372 182.738 1.00062 9.95783 122.859 0 0 0 7.12766 2.18542 4.45756 -17.2617 5.80178 7.99005 5.92992 5.48896 1.25176 1.15067 1.6661 2.99658 -30.085 3.37685 -5.82145 -41.8302 6.73208 -9.38099 -34.6821 -17.8963 -66.0546 -12.1554 -0.453579 4.25801 21.7894 5.58135 16.1421 49.4549 2.90611 1.52454 27.8652 -15.2612 63.5327 6.63591 -0.0057218 -0.0986959 -11.2385 -6.13922 4.78433 -5.70348 22.2624 3.26829 8.52103 -12.9619 0.969743 0.644639 4.02932 -3.32239 -13.4918 0.189342 0.619271 2.93228e-007 60.1868 12.9801 -20.5957 -0.560389 -0.101819 5.17926 -20.8716 -7.65392 
-195.037 94.4932 181.582 1.48292 8.28969 123.653 0 0 0 6.16562 2.96898 3.76254 -14.7327 4.5307 6.51019 6.02782 5.06512 1.51787 1.32161 2.29824 3.21934 -30.2231 3.42686 -5.92362 -41.7871 6.80955 -9.57013 -33.4775 -17.8106 -65.1787 -13.39 -0.510659 4.34826 21.2109 5.30424 15.5445 49.8992 3.53241 2.33736 26.5805 -15.2138 62.3235 7.68339 0.121805 1.81374 -9.62437 -5.11122 4.68783 -5.43925 22.2291 2.65747 8.5458 -14.035 1.05387 0.959736 3.81 -4.46107 -10.0907 -4.68835 2.27299 1.98704e-007 60.8384 8.40672 -17.95 -8.3805 -1.3259 4.4305 -17.0066 -5.74829 
-193.328 94.8518 180.152 1.5289 6.51512 125.01 0 0 0 5.82875 1.64504 2.86662 -13.2577 5.22156 5.30357 7.64274 4.92146 1.11729 0.103197 2.27242 3.65501 -29.1508 3.37834 -6.06783 -42.7753 6.40504 -10.8637 -33.2023 -18.6495 -63.9585 -13.3484 -0.515372 4.40211 22.0478 5.37112 15.2553 48.867 3.0149 2.99391 26.2857 -14.7216 62.7742 7.4521 0.00646774 0.0993148 -8.48587 -3.79685 4.4844 -4.69049 20.9269 0.976221 9.70786 -14.5858 1.24531 0.802297 2.99269 -3.77677 -6.98087 -9.17817 2.41023 2.05873e-007 57.9396 3.71756 -21.8554 -9.41127 -1.82098 4.56878 -17.9873 -7.87505 
-191.461 95.2658 178.886 2.21294 4.74838 126.22 0 0 0 4.59672 2.01654 2.0133 -10.1157 4.4256 3.74395 8.60487 5.21905 0.558791 -0.852901 2.56674 3.68136 -28.6985 3.46994 -6.45086 -44.3766 5.75894 -10.0525 -33.3824 -18.499 -64.2885 -13.1984 -0.465904 4.02555 21.8457 5.31725 15.1934 48.8734 3.28355 3.02796 28.0336 -15.4781 63.38 6.24472 0.034421 0.630999 -6.62361 -2.08888 5.23775 -3.85039 19.8046 -1.37401 9.53687 -15.1272 1.2692 0.83926 2.88225 -3.90383 -3.25413 -12.492 3.33314 -4.9329e-008 52.0836 -2.01675 -22.8028 -9.16515 -1.85204 4.69956 -18.4316 -6.95074 
-189.527 95.5819 177.405 2.4103 3.16037 127.98 0 0 0 3.07562 1.6423 1.14255 -6.96678 4.03924 2.24477 9.64477 5.25439 0.422758 -1.57314 2.15668 4.07699 -27.4259 3.43506 -6.71372 -46.5273 5.46779 -10.3609 -31.9096 -18.1975 -63.3648 -13.651 -0.495854 4.1409 22.0681 5.32044 15.0688 48.2831 3.27575 2.44354 29.0398 -15.7188 63.9901 6.29217 0.0834585 1.51831 -5.27974 -0.571696 5.55005 -2.86942 18.5275 -4.17117 8.78058 -15.6941 1.21247 0.645631 2.42754 -3.09807 -0.671328 -15.3612 3.42715 -3.00262e-007 44.5546 -5.77569 -20.7571 -9.5957 -1.76141 3.69139 -13.6676 -7.60691 
-187.44 95.5088 175.954 2.65254 2.37963 129.559 0 0 0 0.629474 2.09288 0.491982 -3.70049 3.56197 0.991831 10.7368 4.52306 0.0302655 -2.15515 2.58161 4.13947 -26.1434 3.45984 -7.18004 -48.2376 5.77656 -10.9126 -31.5132 -18.3152 -62.8634 -12.6714 -0.433494 3.90275 22.3677 5.25562 14.6684 47.4252 3.30857 1.9554 30.8258 -16.0315 65.1654 5.52638 0.101441 2.10156 -4.29323 1.17001 6.15805 -2.43365 18.1024 -5.98477 9.72333 -17.2253 1.47618 0.701122 2.6223 -3.34044 1.10515 -16.973 3.90969 -6.91295e-007 35.2582 -10.2187 -18.8844 -6.87594 -1.14485 3.99248 -14.9196 -2.87737 
